#!OML:ASF X:\für Bonn\!DataBase\2005_08_12_Daniel\c3d\Daniel.ASF
:FULLY-SPECIFIED
:DEGREES
127
root 2.22096 17.5973 18.5451 -4.90919 -348.76 361.563
lowerback 4.6683 2.54817 3.09489
upperback -0.0816441 3.42863 -7.03193
thorax -2.08771 1.67174 -9.37695
lowerneck 1.53294 -3.62822 -1.12119
upperneck 8.88331 -5.13964 4.14606
head 2.71458 -2.47469 1.42299
rclavicle -4.50247e-014 3.65764e-014
rhumerus 60.3887 0.111167 -67.05
rradius 14.8314
rwrist 28.6093
rhand 14.6346 12.9228
rfingers 7.12502
rthumb 39.5076 -12.4499
lclavicle -4.50247e-014 3.65764e-014
lhumerus -33.2827 39.69 61.6041
lradius 16.5365
lwrist -41.4802
lhand -12.0097 -7.20674
lfingers 7.12502
lthumb 14.0477 22.2985
rfemur 6.53628 15.3457 19.084
rtibia 19.0858
rfoot -26.0447 -23.061
rtoes -11.9982
lfemur -2.85273 -18.5223 -21.9052
ltibia 29.1949
lfoot -20.3518 2.54206
ltoes -13.735
128
root 2.22201 17.5979 18.54 -4.9041 -348.711 361.578
lowerback 4.7377 2.56141 3.06853
upperback -0.0909933 3.44412 -7.04691
thorax -2.13427 1.67789 -9.38362
lowerneck 1.53307 -3.64336 -1.11963
upperneck 8.88771 -5.15958 4.14041
head 2.71642 -2.48461 1.42043
rclavicle 1.41137e-014 5.40694e-014
rhumerus 60.3259 -0.183531 -67.505
rradius 14.9441
rwrist 29.1501
rhand 13.9415 13.0895
rfingers 7.12502
rthumb 38.8544 -12.4721
lclavicle 1.41137e-014 5.40694e-014
lhumerus -33.5268 39.8597 61.4579
lradius 16.499
lwrist -41.5973
lhand -12.0101 -7.10437
lfingers 7.12502
lthumb 14.0472 22.4009
rfemur 6.53607 15.3479 19.0647
rtibia 19.0773
rfoot -26.06 -23.099
rtoes -11.9801
lfemur -2.87847 -18.5571 -21.9217
ltibia 29.194
lfoot -20.3398 2.53114
ltoes -13.6332
129
root 2.22329 17.5983 18.5347 -4.88625 -348.672 361.578
lowerback 4.79669 2.57192 3.05708
upperback -0.113305 3.45619 -7.06234
thorax -2.18823 1.68149 -9.39939
lowerneck 1.52908 -3.6556 -1.08829
upperneck 8.91512 -5.17515 4.11412
head 2.72485 -2.49158 1.40595
rclavicle 7.35503e-015 -2.54444e-014
rhumerus 60.2978 -0.335182 -67.6112
rradius 15.0108
rwrist 29.2917
rhand 13.238 13.1809
rfingers 7.12502
rthumb 38.1906 -12.5662
lclavicle 7.35503e-015 -2.54444e-014
lhumerus -33.8027 40.0032 61.2818
lradius 16.4677
lwrist -41.7217
lhand -12.0224 -6.95457
lfingers 7.12502
lthumb 14.0354 22.5515
rfemur 6.51139 15.3651 19.0528
rtibia 19.0717
rfoot -26.1132 -23.1359
rtoes -11.9877
lfemur -2.92313 -18.5688 -21.9166
ltibia 29.1926
lfoot -20.311 2.52122
ltoes -13.5886
130
root 2.22432 17.5985 18.5296 -4.87812 -348.638 361.579
lowerback 4.85275 2.57402 3.0198
upperback -0.126564 3.4561 -7.05346
thorax -2.23637 1.67963 -9.37198
lowerneck 1.53429 -3.64773 -1.07902
upperneck 8.9252 -5.16171 4.07251
head 2.72501 -2.48559 1.39116
rclavicle -7.65321e-015 9.54166e-015
rhumerus 60.3077 -0.365255 -67.5102
rradius 15.0441
rwrist 29.3094
rhand 12.5282 13.2571
rfingers 7.12502
rthumb 37.5202 -12.6711
lclavicle -7.65321e-015 9.54166e-015
lhumerus -34.1415 40.3031 61.035
lradius 16.4222
lwrist -41.9444
lhand -12.0176 -6.78098
lfingers 7.12502
lthumb 14.04 22.7248
rfemur 6.50241 15.3911 19.0517
rtibia 19.0649
rfoot -26.1311 -23.1847
rtoes -11.9679
lfemur -2.95619 -18.5625 -21.9074
ltibia 29.1887
lfoot -20.2848 2.48216
ltoes -13.5484
131
root 2.22571 17.5994 18.525 -4.85653 -348.596 361.594
lowerback 4.88899 2.57324 2.97363
upperback -0.130543 3.45188 -7.05898
thorax -2.26405 1.67686 -9.35326
lowerneck 1.49714 -3.64678 -1.05113
upperneck 8.93979 -5.16009 4.05646
head 2.73509 -2.48366 1.38047
rclavicle -2.92213e-014 4.92986e-014
rhumerus 60.347 -0.266961 -67.0453
rradius 15.0693
rwrist 28.9566
rhand 11.9085 13.2319
rfingers 7.12502
rthumb 36.9342 -12.8496
lclavicle -2.92213e-014 4.92986e-014
lhumerus -34.4287 40.5318 60.8239
lradius 16.3647
lwrist -42.1142
lhand -12.0162 -6.57695
lfingers 7.12502
lthumb 14.0414 22.9287
rfemur 6.4832 15.4218 19.0324
rtibia 19.0549
rfoot -26.1445 -23.248
rtoes -11.9929
lfemur -2.99965 -18.5754 -21.9193
ltibia 29.1871
lfoot -20.2695 2.47228
ltoes -13.5596
132
root 2.22726 17.5999 18.5204 -4.83857 -348.582 361.596
lowerback 4.93261 2.57165 2.92382
upperback -0.149519 3.44586 -7.04196
thorax -2.31348 1.67194 -9.30865
lowerneck 1.50116 -3.63228 -1.03143
upperneck 8.95728 -5.13685 3.99848
head 2.73673 -2.47281 1.35873
rclavicle 1.05356e-014 -1.59028e-014
rhumerus 60.4113 -0.00943098 -66.2934
rradius 15.0563
rwrist 28.3066
rhand 11.3865 13.117
rfingers 7.12502
rthumb 36.4402 -13.0901
lclavicle 1.05356e-014 -1.59028e-014
lhumerus -34.7968 40.818 60.5449
lradius 16.2924
lwrist -42.3569
lhand -12.0507 -6.40167
lfingers 7.12502
lthumb 14.0082 23.1063
rfemur 6.45439 15.4522 19.0244
rtibia 19.0583
rfoot -26.1565 -23.2822
rtoes -11.9796
lfemur -3.0338 -18.598 -21.9176
ltibia 29.1743
lfoot -20.2414 2.49535
ltoes -13.5242
133
root 2.22883 17.6005 18.5162 -4.82962 -348.563 361.597
lowerback 4.97738 2.56404 2.88199
upperback -0.161949 3.43231 -7.03586
thorax -2.35692 1.66358 -9.2802
lowerneck 1.49201 -3.62409 -0.980792
upperneck 8.96951 -5.12201 3.93637
head 2.7381 -2.46519 1.3299
rclavicle -3.77691e-015 2.70347e-014
rhumerus 60.1402 0.688661 -64.4415
rradius 15.6994
rwrist 26.4899
rhand 11.203 12.6689
rfingers 7.12502
rthumb 36.2664 -13.5817
lclavicle -3.77691e-015 2.70347e-014
lhumerus -35.1291 41.0027 60.3068
lradius 16.2386
lwrist -42.4559
lhand -12.0504 -6.16933
lfingers 7.12502
lthumb 14.0085 23.3386
rfemur 6.4425 15.466 19.0162
rtibia 19.0541
rfoot -26.1642 -23.3078
rtoes -11.9687
lfemur -3.05443 -18.6047 -21.9208
ltibia 29.1657
lfoot -20.2304 2.50141
ltoes -13.5183
